<svg width="172" height="34" viewBox="0 0 172 34" fill="none" xmlns="http://www.w3.org/2000/svg">
<path fill-rule="evenodd" clip-rule="evenodd" d="M0 34L4.128 9.43386C8.772 9.43386 12.298 13.5282 11.5455 18.0025L10.105 26.55H13.33C14.9425 26.55 16.383 26.2756 17.6515 25.7269C18.92 25.157 19.9735 24.2073 20.8335 22.8777C21.6935 21.5481 22.317 19.712 22.704 17.4115C23.0695 15.2166 23.048 13.5282 22.661 12.3464C22.274 11.1434 21.543 10.3203 20.468 9.85596C19.393 9.39165 17.9955 9.1384 16.3185 9.1384L13.1365 9.09619C6.64349 9.09619 4.66551 4.17875 4.49351 1.70947H17.673C21.027 1.70947 23.822 2.36372 26.0795 3.71444C28.337 5.04405 29.928 6.96459 30.874 9.43386C31.82 11.9242 31.992 14.8789 31.433 18.2979C30.8955 21.5903 29.756 24.4184 28.079 26.761C26.402 29.1036 24.252 30.8976 21.6505 32.1428C19.049 33.3668 16.1035 34 12.771 34H0Z" fill="url(#paint0_linear_3052_18980)"/>
<path fill-rule="evenodd" clip-rule="evenodd" d="M7.69702 1.73059H17.6515C21.0055 1.73059 23.8005 2.38484 26.058 3.73556C28.3155 5.06517 29.9065 6.98572 30.8525 9.455C31.7985 11.9454 31.9705 14.9001 31.4115 18.3191C30.874 21.6114 29.7345 24.4395 28.0575 26.7821C27.0255 28.1961 25.8645 29.4202 24.4885 30.4333C24.4885 30.4333 24.4885 30.4333 24.51 30.4333C27.133 29.2092 29.283 27.3942 30.9385 25.0515C32.6155 22.7089 33.755 19.8808 34.2925 16.5885C34.873 13.1695 34.6795 10.2148 33.7335 7.72439C32.7875 5.23401 31.1965 3.33458 28.939 2.00497C26.703 0.654252 23.908 0 20.554 0H7.35303C7.39603 0.527623 7.50352 1.09744 7.69702 1.73059Z" fill="url(#paint1_linear_3052_18980)"/>
<path fill-rule="evenodd" clip-rule="evenodd" d="M70.1545 24.1863C68.1765 24.1863 66.435 23.7853 64.9085 22.9622C63.4035 22.1391 62.221 20.9995 61.361 19.5643C60.501 18.1081 60.071 16.4619 60.071 14.6047C60.071 12.7263 60.501 11.0802 61.361 9.64503C62.221 8.18879 63.4035 7.07024 64.9085 6.24715C66.4135 5.42406 68.155 5.00195 70.09 5.00195C72.068 5.00195 73.788 5.40295 75.3145 6.24715C76.8195 7.04913 78.002 8.18879 78.862 9.64503C79.722 11.0802 80.152 12.7263 80.152 14.6047C80.152 16.4619 79.722 18.1081 78.862 19.5643C78.0235 20.9995 76.841 22.118 75.336 22.9622C73.831 23.7853 72.111 24.1863 70.1545 24.1863ZM70.1545 19.691C71.122 19.691 71.982 19.4799 72.713 19.0578C73.444 18.6146 74.0245 18.0237 74.433 17.2428C74.8415 16.483 75.0565 15.6177 75.0565 14.6258C75.0565 13.6339 74.8415 12.7686 74.4115 12.0088C74.003 11.2279 73.4225 10.637 72.67 10.1938C71.939 9.75057 71.079 9.51841 70.1115 9.51841C69.1655 9.51841 68.327 9.72946 67.553 10.1938C66.822 10.6159 66.2415 11.2279 65.8115 12.0088C65.403 12.7686 65.188 13.6339 65.188 14.6258C65.188 15.6177 65.403 16.483 65.833 17.2428C66.263 18.0026 66.8435 18.5935 67.5745 19.0578C68.327 19.4799 69.187 19.691 70.1545 19.691ZM48.1815 19.2478C48.977 19.2478 49.6865 19.1422 50.353 18.9101C51.0195 18.6779 51.5785 18.3614 52.073 17.9604C52.546 17.5594 52.933 17.074 53.2125 16.5041C53.492 15.9343 53.621 15.3223 53.621 14.6258C53.621 13.9293 53.492 13.3173 53.2125 12.7475C52.933 12.1776 52.5675 11.6922 52.073 11.2912C51.6 10.8902 51.0195 10.5737 50.353 10.3415C49.6865 10.1094 48.9555 10.0038 48.1815 10.0038H46.87V19.2689L48.1815 19.2478ZM53.6425 6.54262C52.073 5.74064 50.2455 5.36074 48.1815 5.36074H46.87H44.29H41.9035V23.8908H44.29H46.87H48.1815C50.2455 23.8908 52.0515 23.4899 53.6425 22.709C55.2335 21.907 56.4805 20.8306 57.3835 19.4377C58.2865 18.0448 58.7165 16.4408 58.7165 14.6469C58.7165 12.8319 58.265 11.2279 57.3835 9.85608C56.4805 8.42095 55.2335 7.3235 53.6425 6.54262ZM87.032 14.3092L80.109 23.8697H86.1075L89.784 18.3614L93.4605 23.8486H99.459L92.579 14.267L99.244 5.31853H93.31L89.8055 10.3415L86.2795 5.31853H80.3455L87.032 14.3092ZM111.435 20.1553L106.317 12.9163V23.8697H101.351V5.86726V5.33964H103.802H106.317H106.855L111.413 11.9666L115.95 5.33964H116.487H119.067H121.454V5.78284V23.8697H116.487V12.9163L111.435 20.1553ZM136.654 20.9151L137.75 23.8908H143.018L135.815 5.36074H135.407H130.87H130.462L123.26 23.8908H128.527L129.624 20.9151H136.654ZM135.041 16.5886L133.128 11.4601L131.215 16.5886H135.041ZM146.824 23.8697V9.83498H141.513V5.33964H157.1V9.83498H151.811V23.8697H146.824ZM159.186 5.33964V23.8697H162.69H164.174H172V19.3744H164.174V16.7785H170.345V12.3887H164.174V9.83498H171.806V5.33964H164.174H162.69H159.186Z" fill="#313D4E"/>
<path fill-rule="evenodd" clip-rule="evenodd" d="M60.2215 29.0614C60.2645 29.0191 60.3075 28.998 60.372 28.998C60.4365 28.998 60.4795 29.0191 60.5225 29.0614C60.5655 29.1036 60.587 29.1458 60.587 29.2091C60.587 29.2513 60.5655 29.3146 60.5225 29.3568C60.4795 29.399 60.4365 29.4201 60.372 29.4201C60.329 29.4201 60.2645 29.399 60.2215 29.3568C60.1785 29.3146 60.157 29.2724 60.157 29.2091C60.157 29.1458 60.1785 29.1036 60.2215 29.0614ZM41.9035 32.9025V29.0614H42.269H44.161V29.3779H42.269V30.7709H44.032V31.0875H42.269V32.5859H44.161V32.9025H42.269H41.9035ZM45.709 30.2644C45.8595 30.1589 46.0745 30.0955 46.311 30.0955C46.655 30.0955 46.913 30.2011 47.128 30.4121C47.343 30.6021 47.429 30.9186 47.429 31.3407V32.9025H47.085V31.4885C47.085 31.1719 47.042 30.9397 46.9775 30.792C46.8915 30.6443 46.8055 30.5387 46.6765 30.4754C46.5475 30.4121 46.397 30.391 46.2465 30.391C45.9885 30.391 45.7735 30.4965 45.623 30.6865C45.4725 30.8764 45.408 31.1508 45.408 31.4885V32.9025H45.064V30.1589H45.3865L45.408 30.581C45.494 30.4543 45.58 30.3488 45.709 30.2644ZM49.321 32.6492C49.278 32.6703 49.235 32.6703 49.192 32.6703C49.0415 32.6703 48.9125 32.6281 48.8265 32.5437C48.7405 32.4593 48.6975 32.3538 48.6975 32.206V30.4543H49.579V30.1588H48.6975V29.2935H48.375V30.1588H47.8805V30.4543H48.375V32.206C48.375 32.4593 48.4395 32.6492 48.59 32.7759C48.7405 32.9025 48.934 32.9869 49.192 32.9869C49.2565 32.9869 49.3425 32.9869 49.407 32.9658C49.4432 32.954 49.4861 32.9355 49.5359 32.9141L49.536 32.914C49.5749 32.8973 49.6179 32.8788 49.665 32.8603L49.5145 32.5648C49.4641 32.5895 49.4211 32.607 49.3855 32.6215C49.3603 32.6317 49.3388 32.6405 49.321 32.6492ZM52.6535 31.5729H52.417V31.5518H52.331H50.4175C50.4175 31.7628 50.4605 31.9317 50.5465 32.1005C50.6325 32.2694 50.7615 32.396 50.912 32.5015C51.0625 32.607 51.256 32.6492 51.4495 32.6492C51.6645 32.6492 51.858 32.607 52.0085 32.5015C52.159 32.396 52.288 32.2694 52.374 32.1005L52.6535 32.2693C52.589 32.396 52.4815 32.5226 52.374 32.6281C52.245 32.7337 52.116 32.8181 51.9655 32.8814C51.815 32.9447 51.643 32.9658 51.4495 32.9658C51.1915 32.9658 50.955 32.9025 50.74 32.7759C50.525 32.6492 50.353 32.4804 50.2455 32.2693C50.138 32.0583 50.0735 31.805 50.0735 31.5307C50.0735 31.2563 50.138 31.0031 50.2455 30.792C50.353 30.581 50.525 30.4121 50.7185 30.2855C50.912 30.1589 51.1485 30.0955 51.4065 30.0955C51.6645 30.0955 51.8795 30.1589 52.073 30.2855C52.2665 30.4121 52.3955 30.6021 52.503 30.8131C52.6105 31.0242 52.6535 31.2774 52.6535 31.5729ZM50.5465 30.9608C50.5035 31.0453 50.4605 31.1508 50.439 31.2774V31.2985H52.3095C52.288 31.1719 52.2665 31.0664 52.2235 30.982C52.159 30.792 52.0515 30.6654 51.9225 30.5599C51.7935 30.4543 51.6215 30.4121 51.428 30.4121C51.2345 30.4121 51.0625 30.4543 50.912 30.5599C50.7615 30.6654 50.6325 30.792 50.5465 30.9608ZM53.621 30.6443V30.1588H53.277V32.9025H53.621V31.3618C53.621 31.1297 53.664 30.9397 53.7715 30.8131C53.879 30.6865 53.9865 30.5809 54.137 30.5176C54.2875 30.4543 54.438 30.4332 54.61 30.4332V30.1377C54.4165 30.1377 54.223 30.1799 54.0295 30.2644C53.8575 30.3488 53.7285 30.4754 53.621 30.6443ZM56.4375 30.0955C56.674 30.0955 56.889 30.1589 57.0825 30.2855C57.276 30.391 57.4265 30.5598 57.534 30.792C57.6415 31.0031 57.706 31.2563 57.706 31.5307C57.706 31.805 57.6415 32.0583 57.534 32.2693C57.4265 32.4804 57.276 32.6492 57.0825 32.7759C56.9105 32.9025 56.674 32.9658 56.4375 32.9658C56.201 32.9658 56.0075 32.9025 55.814 32.7759C55.6635 32.6915 55.5345 32.5437 55.4485 32.396V34H55.1045V30.1589H55.427L55.4485 30.6654C55.556 30.5176 55.6635 30.391 55.814 30.2855C55.986 30.1589 56.201 30.0955 56.4375 30.0955ZM56.889 32.5226C57.0395 32.4382 57.147 32.2904 57.233 32.1216C57.319 31.9528 57.362 31.7628 57.362 31.5307C57.362 31.3196 57.319 31.1086 57.233 30.9397C57.147 30.7709 57.0395 30.6443 56.889 30.5387C56.7385 30.4332 56.5665 30.391 56.373 30.391C56.201 30.391 56.0505 30.4332 55.9 30.5387C55.771 30.6232 55.6635 30.7709 55.5775 30.9397C55.513 31.1086 55.47 31.2985 55.47 31.5307C55.47 31.7417 55.4915 31.9528 55.5775 32.1216C55.6635 32.2904 55.771 32.4171 55.9 32.5226C56.029 32.6281 56.201 32.6703 56.373 32.6703C56.5665 32.6703 56.7385 32.6281 56.889 32.5226ZM58.7165 30.6443V30.1588H58.3725V32.9025H58.7165V31.3618C58.7165 31.1297 58.7595 30.9397 58.867 30.8131C58.9745 30.6865 59.082 30.5809 59.2325 30.5176C59.383 30.4543 59.5335 30.4332 59.7055 30.4332V30.1377C59.512 30.1377 59.3185 30.1799 59.125 30.2644C58.953 30.3488 58.824 30.4754 58.7165 30.6443ZM60.2 32.9025H60.5225L60.544 30.1588H60.2V32.9025ZM62.3285 30.391C62.135 30.391 61.963 30.4332 61.8555 30.5176C61.748 30.6021 61.6835 30.7076 61.705 30.8764C61.705 30.9397 61.748 31.0242 61.834 31.1086C61.92 31.193 62.049 31.2563 62.2425 31.2985L62.479 31.3618C62.6725 31.404 62.823 31.4674 62.952 31.5518C63.081 31.6151 63.1885 31.7206 63.253 31.8261C63.3175 31.9317 63.3605 32.0583 63.3605 32.1849C63.3605 32.3538 63.3175 32.4804 63.2315 32.607C63.1455 32.7337 63.038 32.8181 62.8875 32.8814C62.737 32.9447 62.565 32.9658 62.3715 32.9658C62.1565 32.9658 61.963 32.9447 61.8125 32.8814C61.662 32.8392 61.533 32.7548 61.447 32.6492C61.361 32.5437 61.2965 32.4382 61.2535 32.3327L61.5545 32.2271C61.619 32.3538 61.705 32.4593 61.8555 32.5437C62.006 32.6281 62.1565 32.6703 62.307 32.6703C62.5005 32.6703 62.6725 32.6281 62.8015 32.5437C62.952 32.4593 63.0165 32.3538 63.0165 32.206C63.0165 32.0794 62.9735 31.9739 62.866 31.8895C62.7585 31.805 62.608 31.7206 62.4145 31.6784L62.135 31.6151C61.877 31.5518 61.6835 31.4463 61.5545 31.3196C61.404 31.193 61.3395 31.0453 61.3395 30.8975C61.3395 30.6443 61.4255 30.4543 61.5975 30.3066C61.7695 30.1589 62.0275 30.0955 62.3715 30.0955C62.522 30.0955 62.6725 30.1166 62.8015 30.1589C62.9305 30.2011 63.038 30.2644 63.124 30.3488C63.2315 30.4332 63.296 30.5176 63.339 30.6443L63.038 30.7709C62.9735 30.6443 62.8875 30.5387 62.78 30.4754C62.6725 30.4121 62.522 30.391 62.3285 30.391ZM66.1985 31.5729H66.435C66.435 31.2774 66.392 31.0242 66.2845 30.8131C66.177 30.6021 66.048 30.4121 65.8545 30.2855C65.661 30.1589 65.446 30.0955 65.188 30.0955C64.93 30.0955 64.6935 30.1589 64.5 30.2855C64.3065 30.4121 64.1345 30.581 64.027 30.792C63.9195 31.0031 63.855 31.2563 63.855 31.5307C63.855 31.805 63.9195 32.0583 64.027 32.2693C64.1345 32.4804 64.3065 32.6492 64.5215 32.7759C64.7365 32.9025 64.973 32.9658 65.231 32.9658C65.4245 32.9658 65.5965 32.9447 65.747 32.8814C65.8975 32.8181 66.0265 32.7337 66.1555 32.6281C66.263 32.5226 66.3705 32.396 66.435 32.2693L66.1555 32.1005C66.0695 32.2694 65.9405 32.396 65.79 32.5015C65.6395 32.607 65.446 32.6492 65.231 32.6492C65.0375 32.6492 64.844 32.607 64.6935 32.5015C64.543 32.396 64.414 32.2694 64.328 32.1005C64.242 31.9317 64.199 31.7628 64.199 31.5518H66.1125H66.1985V31.5729ZM64.199 31.2774C64.2205 31.1508 64.2635 31.0453 64.3065 30.9608C64.3925 30.792 64.5215 30.6654 64.672 30.5599C64.8225 30.4543 64.9945 30.4121 65.188 30.4121C65.3815 30.4121 65.5535 30.4543 65.6825 30.5599C65.8115 30.6654 65.919 30.792 65.9835 30.982C66.0265 31.0664 66.048 31.1719 66.0695 31.2985H64.199V31.2774ZM69.66 32.6703C69.8535 32.6703 70.047 32.6281 70.1975 32.5226C70.348 32.4171 70.477 32.2694 70.563 32.1005L70.864 32.2482C70.7565 32.4804 70.606 32.6492 70.391 32.7759C70.1975 32.9025 69.9395 32.9658 69.6815 32.9658C69.4235 32.9658 69.187 32.9025 68.972 32.7759C68.757 32.6492 68.585 32.4804 68.4775 32.2693C68.37 32.0583 68.3055 31.805 68.3055 31.5307C68.3055 31.2563 68.37 31.0031 68.4775 30.792C68.6065 30.581 68.757 30.4121 68.972 30.2855C69.187 30.1589 69.4235 30.0955 69.6815 30.0955C69.961 30.0955 70.176 30.1589 70.391 30.2644C70.5845 30.391 70.7565 30.5387 70.864 30.7498L70.563 30.8975C70.477 30.7287 70.348 30.6021 70.1975 30.5176C70.0255 30.4332 69.8535 30.391 69.66 30.391C69.445 30.391 69.273 30.4332 69.1225 30.5387C68.972 30.6443 68.843 30.7709 68.757 30.9397C68.671 31.1086 68.628 31.2985 68.628 31.5307C68.628 31.7628 68.671 31.9528 68.757 32.1216C68.843 32.2904 68.972 32.4171 69.1225 32.5226C69.273 32.6281 69.4665 32.6703 69.66 32.6703ZM73.3795 30.2855C73.1645 30.1589 72.928 30.0955 72.67 30.0955C72.412 30.0955 72.1755 30.1589 71.9605 30.2855C71.7455 30.4121 71.595 30.581 71.466 30.792C71.3585 31.0031 71.294 31.2563 71.294 31.5307C71.294 31.805 71.3585 32.0583 71.466 32.2693C71.5735 32.4804 71.7455 32.6492 71.9605 32.7759C72.1755 32.9025 72.412 32.9658 72.67 32.9658C72.928 32.9658 73.1645 32.9025 73.3795 32.7759C73.5945 32.6492 73.745 32.4804 73.8525 32.2693C73.96 32.0583 74.0245 31.805 74.0245 31.5307C74.0245 31.2563 73.96 31.0031 73.8525 30.792C73.745 30.5598 73.5945 30.391 73.3795 30.2855ZM73.573 32.1216C73.487 32.2904 73.358 32.4171 73.2075 32.5226C73.057 32.6281 72.885 32.6703 72.67 32.6703C72.4765 32.6703 72.283 32.6281 72.1325 32.5226C71.982 32.4171 71.853 32.2904 71.767 32.1216C71.681 31.9528 71.638 31.7628 71.638 31.5307C71.638 31.2985 71.681 31.1086 71.767 30.9397C71.853 30.7709 71.982 30.6443 72.1325 30.5387C72.283 30.4332 72.455 30.391 72.67 30.391C72.8635 30.391 73.057 30.4332 73.2075 30.5387C73.358 30.6443 73.487 30.7709 73.573 30.9397C73.659 31.1086 73.702 31.2985 73.702 31.5307C73.702 31.7628 73.659 31.9528 73.573 32.1216ZM75.336 30.2644C75.4865 30.1589 75.7015 30.0955 75.938 30.0955C76.282 30.0955 76.5615 30.2011 76.755 30.4121C76.97 30.6021 77.056 30.9186 77.056 31.3407V32.9025H76.712V31.4885C76.712 31.1719 76.669 30.9397 76.6045 30.792C76.5185 30.6443 76.4325 30.5387 76.3035 30.4754C76.1745 30.4121 76.024 30.391 75.8735 30.391C75.6155 30.391 75.4005 30.4965 75.25 30.6865C75.0995 30.8764 75.035 31.1508 75.035 31.4885V32.9025H74.691V30.1589H75.0135L75.035 30.581C75.121 30.4543 75.207 30.3488 75.336 30.2644ZM78.948 32.6492C78.905 32.6703 78.862 32.6703 78.819 32.6703C78.6685 32.6703 78.5395 32.6281 78.4535 32.5437C78.3675 32.4593 78.3245 32.3538 78.3245 32.206V30.4543H79.206V30.1588H78.3245V29.2935H77.9805V30.1588H77.486V30.4543H77.9805V32.206C77.9805 32.4593 78.045 32.6492 78.1955 32.7759C78.346 32.9025 78.5395 32.9869 78.7975 32.9869C78.862 32.9869 78.948 32.9869 79.0125 32.9658C79.0487 32.9539 79.0917 32.9355 79.1414 32.9141L79.1415 32.914C79.1804 32.8973 79.2234 32.8788 79.2705 32.8603L79.12 32.5648C79.075 32.5942 79.0301 32.6134 78.9924 32.6295C78.976 32.6364 78.961 32.6428 78.948 32.6492ZM82.302 31.5729H82.0655V31.5518H81.9795H80.066C80.066 31.7628 80.109 31.9317 80.195 32.1005C80.281 32.2694 80.41 32.396 80.5605 32.5015C80.711 32.607 80.9045 32.6492 81.098 32.6492C81.313 32.6492 81.5065 32.607 81.657 32.5015C81.8075 32.396 81.9365 32.2694 82.0225 32.1005L82.302 32.2693C82.2375 32.396 82.13 32.5226 82.0225 32.6281C81.8935 32.7337 81.7645 32.8181 81.614 32.8814C81.4635 32.9447 81.2915 32.9658 81.098 32.9658C80.84 32.9658 80.6035 32.9025 80.3885 32.7759C80.1735 32.6492 80.0015 32.4804 79.894 32.2693C79.7865 32.0583 79.722 31.805 79.722 31.5307C79.722 31.2563 79.7865 31.0031 79.894 30.792C80.0015 30.581 80.1735 30.4121 80.367 30.2855C80.5605 30.1589 80.797 30.0955 81.055 30.0955C81.313 30.0955 81.528 30.1589 81.7215 30.2855C81.915 30.4121 82.044 30.6021 82.1515 30.8131C82.259 31.0242 82.302 31.2774 82.302 31.5729ZM80.1735 30.9608C80.1305 31.0453 80.0875 31.1508 80.066 31.2774V31.2985H81.9365C81.915 31.1719 81.8935 31.0664 81.8505 30.982C81.786 30.792 81.6785 30.6654 81.5495 30.5599C81.4205 30.4543 81.2485 30.4121 81.055 30.4121C80.8615 30.4121 80.6895 30.4543 80.539 30.5599C80.3885 30.6654 80.2595 30.792 80.1735 30.9608ZM84.151 30.0955C83.9145 30.0955 83.6995 30.1589 83.549 30.2644C83.42 30.3488 83.334 30.4543 83.248 30.581L83.2265 30.1589H82.904V32.9025H83.248V31.4885C83.248 31.1508 83.3125 30.8764 83.463 30.6865C83.6135 30.4965 83.8285 30.391 84.0865 30.391C84.237 30.391 84.3875 30.4121 84.5165 30.4754C84.6455 30.5387 84.7315 30.6443 84.8175 30.792C84.882 30.9397 84.925 31.1719 84.925 31.4885V32.9025H85.269V31.3407C85.269 30.9186 85.183 30.6021 84.968 30.4121C84.753 30.2011 84.495 30.0955 84.151 30.0955ZM87.032 32.6703C87.075 32.6703 87.118 32.6703 87.161 32.6492C87.1653 32.6471 87.1697 32.645 87.1744 32.6429C87.184 32.6386 87.1944 32.6342 87.2054 32.6295C87.2431 32.6134 87.288 32.5942 87.333 32.5648L87.4835 32.8603C87.4364 32.8788 87.3934 32.8973 87.3545 32.914L87.3544 32.9141C87.3047 32.9355 87.2617 32.9539 87.2255 32.9658C87.161 32.9869 87.075 32.9869 87.0105 32.9869C86.7525 32.9869 86.559 32.9025 86.4085 32.7759C86.258 32.6492 86.1935 32.4593 86.1935 32.206V30.4543H85.699V30.1588H86.1935V29.2935H86.5375V30.1588H87.419V30.4543H86.5375V32.206C86.5375 32.3538 86.5805 32.4593 86.6665 32.5437C86.7525 32.6281 86.8815 32.6703 87.032 32.6703ZM91.031 30.2433C90.859 30.1378 90.6655 30.0955 90.4075 30.0955C90.257 30.0955 90.1065 30.1166 89.9775 30.1589C89.8485 30.2011 89.7195 30.2644 89.612 30.3488C89.5045 30.4332 89.4185 30.5387 89.3325 30.6865L89.6335 30.8131C89.7195 30.6654 89.8055 30.5599 89.9345 30.4965C90.0635 30.4332 90.214 30.391 90.386 30.391C90.5795 30.391 90.7085 30.4332 90.8375 30.4965C90.9665 30.5599 91.031 30.6865 91.0955 30.8342C91.1385 30.9397 91.16 31.0875 91.1815 31.2563H90.343C90.0205 31.2563 89.7625 31.3407 89.569 31.4885C89.3755 31.6362 89.2895 31.8472 89.2895 32.1216C89.2895 32.396 89.3755 32.5859 89.569 32.7337C89.7625 32.8814 90.0205 32.9658 90.343 32.9658C90.7085 32.9658 90.988 32.8603 91.1815 32.6281L91.203 32.9025H91.504V31.4252C91.504 31.1297 91.461 30.8764 91.375 30.6865C91.3105 30.4965 91.203 30.3488 91.031 30.2433ZM90.7945 32.5437C90.6655 32.6281 90.515 32.6703 90.343 32.6703C90.128 32.6703 89.956 32.6281 89.827 32.5226C89.698 32.4171 89.655 32.2904 89.655 32.1216C89.655 31.9528 89.7195 31.805 89.827 31.7206C89.9345 31.6151 90.128 31.5729 90.4075 31.5729H91.203V31.7206C91.203 31.9106 91.16 32.0794 91.0955 32.206C91.0095 32.3538 90.9235 32.4804 90.7945 32.5437ZM92.923 30.2644C93.0735 30.1589 93.2885 30.0955 93.525 30.0955C93.8475 30.0955 94.127 30.2011 94.342 30.4121C94.557 30.6021 94.643 30.9186 94.643 31.3407V32.9025H94.299V31.4885C94.299 31.1719 94.256 30.9397 94.1915 30.792C94.1055 30.6443 94.0195 30.5387 93.8905 30.4754C93.7615 30.4121 93.611 30.391 93.4605 30.391C93.2025 30.391 92.9875 30.4965 92.837 30.6865C92.6865 30.8764 92.622 31.1508 92.622 31.4885V32.9025H92.278V30.1589H92.6005L92.622 30.581C92.708 30.4543 92.794 30.3488 92.923 30.2644ZM97.4595 30.6654C97.3735 30.5176 97.2445 30.391 97.094 30.2855C96.922 30.1588 96.707 30.0955 96.4705 30.0955C96.234 30.0955 95.9975 30.1588 95.8255 30.2855C95.632 30.4121 95.4815 30.5809 95.374 30.792C95.2665 31.003 95.202 31.2563 95.202 31.5306C95.202 31.805 95.2665 32.0583 95.374 32.2693C95.4815 32.4804 95.632 32.6492 95.8255 32.7758C96.019 32.9025 96.234 32.9658 96.4705 32.9658C96.707 32.9658 96.922 32.9025 97.094 32.7758C97.2445 32.6703 97.352 32.5437 97.4595 32.396L97.481 32.9025H97.8035V29.0614H97.4595V30.6654ZM97.0295 32.5226C96.9005 32.6281 96.7285 32.6703 96.5565 32.6703C96.363 32.6703 96.191 32.6281 96.0405 32.5226C95.89 32.4171 95.7825 32.2904 95.6965 32.1216C95.6105 31.9527 95.5675 31.7417 95.5675 31.5306C95.5675 31.2985 95.6105 31.1086 95.6965 30.9397C95.7825 30.7709 95.89 30.6231 96.0405 30.5387C96.191 30.4332 96.363 30.391 96.5565 30.391C96.75 30.391 96.9005 30.4332 97.0295 30.5387C97.1585 30.6442 97.266 30.7709 97.352 30.9397C97.438 31.1086 97.4595 31.3196 97.4595 31.5306C97.4595 31.7628 97.4165 31.9527 97.352 32.1216C97.266 32.2904 97.1585 32.4382 97.0295 32.5226ZM101.372 30.0955C101.609 30.0955 101.824 30.1588 102.017 30.2855C102.211 30.391 102.361 30.5598 102.469 30.792C102.576 31.003 102.641 31.2563 102.641 31.5306C102.641 31.805 102.576 32.0583 102.469 32.2693C102.361 32.4804 102.211 32.6492 102.017 32.7758C101.846 32.9025 101.609 32.9658 101.372 32.9658C101.136 32.9658 100.942 32.9025 100.749 32.7758C100.598 32.6914 100.47 32.5437 100.384 32.396L100.362 32.9025H100.04V29.0614H100.384V30.6654C100.491 30.5176 100.598 30.391 100.749 30.2855C100.921 30.1588 101.136 30.0955 101.372 30.0955ZM101.824 32.5226C101.974 32.4382 102.082 32.2904 102.168 32.1216C102.254 31.9527 102.297 31.7628 102.297 31.5306C102.297 31.3196 102.254 31.1086 102.168 30.9397C102.082 30.7709 101.974 30.6442 101.824 30.5387C101.673 30.4332 101.501 30.391 101.308 30.391C101.136 30.391 100.986 30.4332 100.835 30.5387C100.706 30.6231 100.598 30.7709 100.512 30.9397C100.448 31.1086 100.405 31.2985 100.405 31.5306C100.405 31.7417 100.427 31.9527 100.512 32.1216C100.598 32.2904 100.706 32.4171 100.835 32.5226C100.964 32.6281 101.136 32.6703 101.308 32.6703C101.501 32.6703 101.673 32.6281 101.824 32.5226ZM105.221 31.5728C105.221 31.9105 105.157 32.1849 105.006 32.3748C104.856 32.5648 104.641 32.6703 104.382 32.6703C104.232 32.6703 104.082 32.6492 103.952 32.5859C103.823 32.5226 103.716 32.417 103.651 32.2693C103.587 32.1216 103.544 31.8894 103.544 31.5728V30.1588H103.2V31.7206C103.2 32.1427 103.286 32.4593 103.501 32.6492C103.695 32.8602 103.974 32.9658 104.318 32.9658C104.554 32.9658 104.769 32.9025 104.92 32.7969C105.049 32.7125 105.135 32.607 105.221 32.4804L105.242 32.9025H105.565V30.1588H105.221V31.5728ZM107.328 30.391C107.134 30.391 106.962 30.4332 106.855 30.5176C106.726 30.6021 106.683 30.7076 106.705 30.8764C106.705 30.9397 106.748 31.0242 106.834 31.1086C106.92 31.193 107.049 31.2563 107.242 31.2985L107.479 31.3618C107.645 31.3982 107.78 31.4658 107.896 31.5243C107.915 31.5337 107.934 31.543 107.951 31.5518C108.08 31.6151 108.188 31.7206 108.252 31.8261C108.317 31.9317 108.36 32.0583 108.36 32.1849C108.36 32.3538 108.317 32.4804 108.231 32.607C108.145 32.7337 108.038 32.8181 107.887 32.8814C107.737 32.9447 107.565 32.9658 107.371 32.9658C107.156 32.9658 106.963 32.9447 106.812 32.8814C106.662 32.8392 106.532 32.7548 106.446 32.6492C106.36 32.5437 106.296 32.4382 106.253 32.3327L106.554 32.2271C106.618 32.3538 106.704 32.4593 106.855 32.5437C107.006 32.6281 107.156 32.6703 107.306 32.6703C107.5 32.6703 107.672 32.6281 107.801 32.5437C107.952 32.4593 108.016 32.3538 108.016 32.206C108.016 32.0794 107.973 31.9739 107.865 31.8895C107.758 31.805 107.607 31.7206 107.414 31.6784L107.135 31.6151C106.877 31.5518 106.683 31.4463 106.554 31.3196C106.403 31.193 106.339 31.0453 106.339 30.8975C106.339 30.6443 106.425 30.4543 106.597 30.3066C106.769 30.1589 107.027 30.0955 107.371 30.0955C107.522 30.0955 107.672 30.1166 107.801 30.1589C107.93 30.2011 108.038 30.2644 108.124 30.3488C108.231 30.4332 108.296 30.5176 108.339 30.6443L108.037 30.7709C107.973 30.6443 107.887 30.5387 107.78 30.4754C107.672 30.4121 107.521 30.391 107.328 30.391ZM109.026 32.9025H109.37V30.1588H109.048L109.026 32.9025ZM109.048 29.0614C109.091 29.0191 109.134 28.998 109.199 28.998C109.263 28.998 109.327 29.0191 109.349 29.0614C109.392 29.1036 109.414 29.1458 109.414 29.2091C109.414 29.2513 109.392 29.3146 109.349 29.3568C109.306 29.399 109.263 29.4201 109.199 29.4201C109.156 29.4201 109.091 29.399 109.048 29.3568C109.005 29.3146 108.984 29.2724 108.984 29.2091C108.984 29.1458 109.005 29.1036 109.048 29.0614ZM111.477 30.0955C111.241 30.0955 111.026 30.1589 110.875 30.2644C110.746 30.3488 110.661 30.4543 110.575 30.581L110.553 30.1589H110.23V32.9025H110.575V31.4885C110.575 31.1508 110.639 30.8764 110.79 30.6865C110.94 30.4965 111.155 30.391 111.413 30.391C111.563 30.391 111.714 30.4121 111.843 30.4754C111.972 30.5387 112.058 30.6443 112.144 30.792C112.208 30.9397 112.251 31.1719 112.251 31.4885V32.9025H112.595V31.3407C112.595 30.9186 112.51 30.6021 112.295 30.4121C112.08 30.2011 111.8 30.0955 111.477 30.0955ZM115.756 31.5729H115.52V31.5518H115.434H113.52C113.52 31.7628 113.563 31.9317 113.649 32.1005C113.735 32.2694 113.864 32.396 114.015 32.5015C114.165 32.607 114.359 32.6492 114.552 32.6492C114.767 32.6492 114.961 32.607 115.111 32.5015C115.262 32.396 115.39 32.2694 115.476 32.1005L115.756 32.2693C115.692 32.396 115.584 32.5226 115.476 32.6281C115.347 32.7337 115.218 32.8181 115.068 32.8814C114.917 32.9447 114.746 32.9658 114.552 32.9658C114.294 32.9658 114.057 32.9025 113.842 32.7759C113.627 32.6492 113.455 32.4804 113.348 32.2693C113.24 32.0583 113.176 31.805 113.176 31.5307C113.176 31.2563 113.24 31.0031 113.348 30.792C113.455 30.581 113.628 30.4121 113.821 30.2855C114.015 30.1589 114.251 30.0955 114.509 30.0955C114.767 30.0955 114.982 30.1589 115.175 30.2855C115.369 30.4121 115.498 30.6021 115.605 30.8131C115.713 31.0242 115.756 31.2774 115.756 31.5729ZM113.627 30.9608C113.584 31.0453 113.542 31.1508 113.52 31.2774V31.2985H115.39C115.369 31.1719 115.348 31.0664 115.305 30.982C115.24 30.792 115.133 30.6654 115.004 30.5599C114.875 30.4543 114.702 30.4121 114.509 30.4121C114.315 30.4121 114.143 30.4543 113.993 30.5599C113.842 30.6654 113.713 30.792 113.627 30.9608ZM116.831 30.5176C116.939 30.4332 117.11 30.391 117.304 30.391C117.497 30.391 117.648 30.4121 117.755 30.4754C117.863 30.5387 117.949 30.6443 118.014 30.7709L118.315 30.6443C118.272 30.5176 118.207 30.4332 118.1 30.3488C118.014 30.2644 117.906 30.2011 117.777 30.1589C117.648 30.1166 117.498 30.0955 117.347 30.0955C117.003 30.0955 116.745 30.1589 116.573 30.3066C116.401 30.4543 116.315 30.6443 116.315 30.8975C116.315 31.0453 116.379 31.193 116.53 31.3196C116.659 31.4463 116.852 31.5518 117.11 31.6151L117.39 31.6784C117.583 31.7206 117.734 31.805 117.841 31.8895C117.949 31.9739 117.992 32.0794 117.992 32.206C117.992 32.3538 117.928 32.4593 117.777 32.5437C117.648 32.6281 117.476 32.6703 117.282 32.6703C117.132 32.6703 116.982 32.6281 116.831 32.5437C116.681 32.4593 116.594 32.3538 116.53 32.2271L116.229 32.3327C116.272 32.4382 116.337 32.5437 116.422 32.6492C116.508 32.7548 116.637 32.8392 116.788 32.8814C116.938 32.9447 117.132 32.9658 117.347 32.9658C117.541 32.9658 117.712 32.9447 117.863 32.8814C118.013 32.8181 118.121 32.7337 118.207 32.607C118.293 32.4804 118.336 32.3538 118.336 32.1849C118.336 32.0583 118.293 31.9317 118.229 31.8261C118.164 31.7206 118.057 31.6151 117.927 31.5518C117.91 31.543 117.891 31.5337 117.872 31.5243C117.756 31.4658 117.621 31.3982 117.455 31.3618L117.218 31.2985C117.024 31.2563 116.896 31.193 116.81 31.1086C116.724 31.0242 116.68 30.9397 116.68 30.8764C116.659 30.7076 116.724 30.6021 116.831 30.5176ZM119.905 30.391C119.712 30.391 119.54 30.4332 119.432 30.5176C119.325 30.6021 119.261 30.7076 119.282 30.8764C119.282 30.9397 119.325 31.0242 119.411 31.1086C119.497 31.193 119.626 31.2563 119.82 31.2985L120.056 31.3618C120.223 31.3982 120.357 31.4658 120.474 31.5243L120.492 31.5334C120.505 31.5397 120.517 31.5458 120.529 31.5518C120.658 31.6151 120.766 31.7206 120.83 31.8261C120.894 31.9317 120.937 32.0583 120.937 32.1849C120.937 32.3538 120.895 32.4804 120.809 32.607C120.723 32.7337 120.615 32.8181 120.465 32.8814C120.314 32.9447 120.142 32.9658 119.949 32.9658C119.734 32.9658 119.54 32.9447 119.39 32.8814C119.239 32.8392 119.11 32.7548 119.024 32.6492C118.938 32.5437 118.873 32.4382 118.83 32.3327L119.131 32.2271C119.196 32.3538 119.282 32.4593 119.432 32.5437C119.583 32.6281 119.733 32.6703 119.884 32.6703C120.077 32.6703 120.25 32.6281 120.379 32.5437C120.529 32.4593 120.594 32.3538 120.594 32.206C120.594 32.0794 120.55 31.9739 120.443 31.8895C120.335 31.805 120.185 31.7206 119.991 31.6784L119.712 31.6151C119.454 31.5518 119.26 31.4463 119.131 31.3196C118.981 31.193 118.916 31.0453 118.916 30.8975C118.916 30.6443 119.003 30.4543 119.175 30.3066C119.347 30.1589 119.605 30.0955 119.949 30.0955C120.099 30.0955 120.25 30.1166 120.379 30.1589C120.508 30.2011 120.615 30.2644 120.701 30.3488C120.809 30.4332 120.873 30.5176 120.916 30.6443L120.615 30.7709C120.551 30.6443 120.465 30.5387 120.357 30.4754C120.25 30.4121 120.099 30.391 119.905 30.391ZM125.001 30.2855C124.808 30.1589 124.593 30.0955 124.356 30.0955C124.12 30.0955 123.904 30.1589 123.732 30.2855C123.582 30.391 123.475 30.5176 123.367 30.6654L123.345 30.1589H123.023V34H123.367V32.396C123.453 32.5437 123.582 32.6915 123.732 32.7759C123.926 32.9025 124.12 32.9658 124.356 32.9658C124.593 32.9658 124.829 32.9025 125.001 32.7759C125.195 32.6492 125.345 32.4804 125.452 32.2693C125.56 32.0583 125.625 31.805 125.625 31.5307C125.625 31.2563 125.56 31.0031 125.452 30.792C125.345 30.5598 125.195 30.391 125.001 30.2855ZM125.151 32.1216C125.065 32.2904 124.958 32.4382 124.807 32.5226C124.657 32.6281 124.485 32.6703 124.291 32.6703C124.119 32.6703 123.948 32.6281 123.819 32.5226C123.69 32.4171 123.582 32.2904 123.496 32.1216C123.41 31.9528 123.389 31.7417 123.389 31.5307C123.389 31.2985 123.432 31.1086 123.496 30.9397C123.582 30.7709 123.69 30.6232 123.819 30.5387C123.969 30.4332 124.119 30.391 124.291 30.391C124.485 30.391 124.657 30.4332 124.807 30.5387C124.958 30.6443 125.065 30.7709 125.151 30.9397C125.237 31.1086 125.28 31.3196 125.28 31.5307C125.28 31.7628 125.237 31.9528 125.151 32.1216ZM126.614 30.1588V30.6443C126.721 30.4754 126.872 30.3488 127.022 30.2644C127.216 30.1799 127.409 30.1377 127.602 30.1377V30.4332C127.431 30.4332 127.28 30.4543 127.13 30.5176C126.979 30.5809 126.871 30.6865 126.764 30.8131C126.656 30.9397 126.614 31.1297 126.614 31.3618V32.9025H126.27V30.1588H126.614ZM129.989 30.2855C129.774 30.1589 129.538 30.0955 129.28 30.0955C129.022 30.0955 128.785 30.1589 128.57 30.2855C128.355 30.4121 128.204 30.581 128.075 30.792C127.968 31.0031 127.904 31.2563 127.904 31.5307C127.904 31.805 127.968 32.0583 128.075 32.2693C128.183 32.4804 128.355 32.6492 128.57 32.7759C128.785 32.9025 129.022 32.9658 129.28 32.9658C129.538 32.9658 129.774 32.9025 129.989 32.7759C130.204 32.6492 130.355 32.4804 130.462 32.2693C130.57 32.0583 130.634 31.805 130.634 31.5307C130.634 31.2563 130.57 31.0031 130.462 30.792C130.355 30.5598 130.204 30.391 129.989 30.2855ZM130.182 32.1216C130.097 32.2904 129.968 32.4171 129.817 32.5226C129.667 32.6281 129.495 32.6703 129.28 32.6703C129.086 32.6703 128.893 32.6281 128.742 32.5226C128.592 32.4171 128.462 32.2904 128.376 32.1216C128.29 31.9528 128.247 31.7628 128.247 31.5307C128.247 31.2985 128.29 31.1086 128.376 30.9397C128.462 30.7709 128.592 30.6443 128.742 30.5387C128.893 30.4332 129.065 30.391 129.28 30.391C129.473 30.391 129.667 30.4332 129.817 30.5387C129.968 30.6443 130.097 30.7709 130.182 30.9397C130.268 31.1086 130.311 31.2985 130.311 31.5307C130.311 31.7628 130.268 31.9528 130.182 32.1216ZM132.526 32.6703C132.72 32.6703 132.913 32.6281 133.064 32.5226C133.236 32.4171 133.343 32.2694 133.429 32.1005L133.73 32.2482C133.622 32.4804 133.451 32.6492 133.257 32.7759C133.064 32.9025 132.806 32.9658 132.547 32.9658C132.289 32.9658 132.053 32.9025 131.838 32.7759C131.623 32.6492 131.451 32.4804 131.344 32.2693C131.236 32.0583 131.171 31.805 131.171 31.5307C131.171 31.2563 131.236 31.0031 131.344 30.792C131.473 30.581 131.623 30.4121 131.838 30.2855C132.053 30.1589 132.289 30.0955 132.547 30.0955C132.827 30.0955 133.042 30.1589 133.257 30.2644C133.451 30.391 133.622 30.5387 133.73 30.7498L133.429 30.8975C133.343 30.7287 133.214 30.6021 133.064 30.5176C132.892 30.4332 132.72 30.391 132.526 30.391C132.311 30.391 132.139 30.4332 131.989 30.5387C131.838 30.6443 131.709 30.7709 131.623 30.9397C131.537 31.1086 131.494 31.2985 131.494 31.5307C131.494 31.7628 131.537 31.9528 131.623 32.1216C131.709 32.2904 131.838 32.4171 131.989 32.5226C132.139 32.6281 132.333 32.6703 132.526 32.6703ZM136.525 31.5729H136.761C136.761 31.2774 136.719 31.0242 136.611 30.8131C136.504 30.6021 136.375 30.4121 136.181 30.2855C135.988 30.1589 135.773 30.0955 135.515 30.0955C135.257 30.0955 135.02 30.1589 134.826 30.2855C134.633 30.4121 134.461 30.581 134.354 30.792C134.246 31.0031 134.181 31.2563 134.181 31.5307C134.181 31.805 134.246 32.0583 134.354 32.2693C134.461 32.4804 134.633 32.6492 134.848 32.7759C135.063 32.9025 135.299 32.9658 135.557 32.9658C135.751 32.9658 135.923 32.9447 136.074 32.8814C136.224 32.8181 136.353 32.7337 136.482 32.6281C136.59 32.5226 136.697 32.396 136.761 32.2693L136.482 32.1005C136.396 32.2694 136.267 32.396 136.116 32.5015C135.966 32.607 135.772 32.6492 135.557 32.6492C135.364 32.6492 135.171 32.607 135.02 32.5015C134.869 32.396 134.741 32.2694 134.655 32.1005C134.569 31.9317 134.525 31.7628 134.525 31.5518H136.439H136.525V31.5729ZM134.525 31.2774C134.547 31.1508 134.59 31.0453 134.633 30.9608C134.719 30.792 134.848 30.6654 134.999 30.5599C135.149 30.4543 135.321 30.4121 135.515 30.4121C135.708 30.4121 135.88 30.4543 136.009 30.5599C136.138 30.6654 136.246 30.792 136.31 30.982C136.353 31.0664 136.375 31.1719 136.396 31.2985H134.525V31.2774ZM138.31 30.391C138.116 30.391 137.944 30.4332 137.836 30.5176C137.707 30.6021 137.665 30.7076 137.686 30.8764C137.686 30.9397 137.729 31.0242 137.815 31.1086C137.901 31.193 138.03 31.2563 138.224 31.2985L138.46 31.3618C138.627 31.3982 138.761 31.4658 138.878 31.5243L138.904 31.5376C138.914 31.5424 138.924 31.5472 138.933 31.5518C139.062 31.6151 139.169 31.7206 139.234 31.8261C139.298 31.9317 139.341 32.0583 139.341 32.1849C139.341 32.3538 139.298 32.4804 139.212 32.607C139.127 32.7337 139.019 32.8181 138.869 32.8814C138.718 32.9447 138.546 32.9658 138.352 32.9658C138.137 32.9658 137.944 32.9447 137.794 32.8814C137.643 32.8392 137.514 32.7548 137.428 32.6492C137.342 32.5437 137.278 32.4382 137.235 32.3327L137.535 32.2271C137.6 32.3538 137.686 32.4593 137.836 32.5437C137.987 32.6281 138.137 32.6703 138.288 32.6703C138.481 32.6703 138.653 32.6281 138.782 32.5437C138.933 32.4593 138.997 32.3538 138.997 32.206C138.997 32.0794 138.955 31.9739 138.847 31.8895C138.74 31.805 138.589 31.7206 138.395 31.6784L138.116 31.6151C137.858 31.5518 137.664 31.4463 137.535 31.3196C137.385 31.193 137.32 31.0453 137.32 30.8975C137.32 30.6443 137.407 30.4543 137.579 30.3066C137.751 30.1589 138.008 30.0955 138.352 30.0955C138.503 30.0955 138.653 30.1166 138.782 30.1589C138.912 30.2011 139.019 30.2644 139.105 30.3488C139.212 30.4332 139.277 30.5176 139.32 30.6443L139.019 30.7709C138.954 30.6443 138.869 30.5387 138.761 30.4754C138.654 30.4121 138.503 30.391 138.31 30.391ZM140.438 30.5176C140.545 30.4332 140.718 30.391 140.911 30.391C141.105 30.391 141.255 30.4121 141.362 30.4754C141.47 30.5387 141.556 30.6443 141.62 30.7709L141.921 30.6443C141.878 30.5176 141.814 30.4332 141.706 30.3488C141.62 30.2644 141.513 30.2011 141.384 30.1589C141.255 30.1166 141.104 30.0955 140.954 30.0955C140.61 30.0955 140.352 30.1589 140.18 30.3066C140.008 30.4543 139.922 30.6443 139.922 30.8975C139.922 31.0453 139.987 31.193 140.137 31.3196C140.266 31.4463 140.459 31.5518 140.717 31.6151L140.997 31.6784C141.191 31.7206 141.341 31.805 141.449 31.8895C141.556 31.9739 141.599 32.0794 141.599 32.206C141.599 32.3538 141.534 32.4593 141.384 32.5437C141.255 32.6281 141.083 32.6703 140.89 32.6703C140.739 32.6703 140.588 32.6281 140.438 32.5437C140.287 32.4593 140.202 32.3538 140.137 32.2271L139.836 32.3327C139.879 32.4382 139.944 32.5437 140.03 32.6492C140.116 32.7548 140.244 32.8392 140.395 32.8814C140.546 32.9447 140.739 32.9658 140.954 32.9658C141.147 32.9658 141.319 32.9447 141.47 32.8814C141.621 32.8181 141.728 32.7337 141.814 32.607C141.9 32.4804 141.943 32.3538 141.943 32.1849C141.943 32.0583 141.9 31.9317 141.835 31.8261C141.771 31.7206 141.664 31.6151 141.535 31.5518C141.526 31.5475 141.517 31.5431 141.508 31.5387L141.479 31.5243C141.363 31.4658 141.228 31.3982 141.061 31.3618L140.825 31.2985C140.632 31.2563 140.502 31.193 140.416 31.1086C140.33 31.0242 140.287 30.9397 140.287 30.8764C140.266 30.7076 140.33 30.6021 140.438 30.5176ZM144.931 30.0955C145.189 30.0955 145.383 30.1378 145.555 30.2433C145.727 30.3488 145.834 30.4965 145.899 30.6865C145.985 30.8764 146.028 31.1297 146.028 31.4252V32.9025H145.727L145.705 32.6281C145.512 32.8603 145.233 32.9658 144.867 32.9658C144.545 32.9658 144.286 32.8814 144.093 32.7337C143.899 32.5859 143.814 32.396 143.814 32.1216C143.814 31.8472 143.899 31.6362 144.093 31.4885C144.286 31.3407 144.545 31.2563 144.867 31.2563H145.705C145.684 31.0875 145.663 30.9397 145.62 30.8342C145.555 30.6865 145.469 30.581 145.361 30.4965C145.232 30.4332 145.103 30.391 144.91 30.391C144.738 30.391 144.588 30.4332 144.459 30.4965C144.33 30.5599 144.243 30.6654 144.157 30.8131L143.856 30.6865C143.942 30.5387 144.029 30.4332 144.136 30.3488C144.244 30.2644 144.372 30.2011 144.501 30.1589C144.63 30.1166 144.781 30.0955 144.931 30.0955ZM144.867 32.6703C145.039 32.6703 145.19 32.6281 145.319 32.5437C145.448 32.4804 145.534 32.3538 145.62 32.206C145.684 32.0794 145.727 31.9106 145.727 31.7206V31.5729H144.931C144.652 31.5729 144.459 31.6151 144.351 31.7206C144.244 31.805 144.179 31.9528 144.179 32.1216C144.179 32.2904 144.222 32.4171 144.351 32.5226C144.48 32.6281 144.652 32.6703 144.867 32.6703ZM148.737 31.5728C148.737 31.9105 148.673 32.1849 148.522 32.3748C148.372 32.5648 148.157 32.6703 147.899 32.6703C147.748 32.6703 147.598 32.6492 147.469 32.5859C147.34 32.5226 147.232 32.417 147.167 32.2693C147.103 32.1216 147.06 31.8894 147.06 31.5728V30.1588H146.716V31.7206C146.716 32.1427 146.802 32.4593 147.017 32.6492C147.211 32.8602 147.49 32.9658 147.834 32.9658C148.07 32.9658 148.286 32.9025 148.436 32.7969C148.565 32.7125 148.651 32.607 148.737 32.4804L148.759 32.9025H149.081V30.1588H148.737V31.5728ZM150.93 32.6703C150.973 32.6703 151.016 32.6703 151.059 32.6492L151.231 32.5648L151.381 32.8603C151.334 32.8788 151.291 32.8973 151.252 32.914C151.203 32.9354 151.16 32.9539 151.124 32.9658C151.059 32.9869 150.973 32.9869 150.909 32.9869C150.651 32.9869 150.457 32.9025 150.306 32.7759C150.156 32.6492 150.091 32.4593 150.091 32.206V30.4543H149.597V30.1588H150.091V29.2935H150.435V30.1588H151.317V30.4543H150.435V32.206C150.435 32.3538 150.479 32.4593 150.565 32.5437C150.651 32.6281 150.779 32.6703 150.93 32.6703ZM153.875 30.2855C153.66 30.1589 153.424 30.0955 153.166 30.0955C152.908 30.0955 152.671 30.1589 152.456 30.2855C152.241 30.4121 152.091 30.581 151.962 30.792C151.855 31.0031 151.79 31.2563 151.79 31.5307C151.79 31.805 151.855 32.0583 151.962 32.2693C152.07 32.4804 152.241 32.6492 152.456 32.7759C152.671 32.9025 152.908 32.9658 153.166 32.9658C153.424 32.9658 153.66 32.9025 153.875 32.7759C154.09 32.6492 154.241 32.4804 154.349 32.2693C154.456 32.0583 154.52 31.805 154.52 31.5307C154.52 31.2563 154.456 31.0031 154.349 30.792C154.241 30.5598 154.09 30.391 153.875 30.2855ZM154.069 32.1216C153.983 32.2904 153.854 32.4171 153.704 32.5226C153.553 32.6281 153.381 32.6703 153.166 32.6703C152.973 32.6703 152.779 32.6281 152.629 32.5226C152.478 32.4171 152.349 32.2904 152.263 32.1216C152.177 31.9528 152.134 31.7628 152.134 31.5307C152.134 31.2985 152.177 31.1086 152.263 30.9397C152.349 30.7709 152.478 30.6443 152.629 30.5387C152.779 30.4332 152.951 30.391 153.166 30.391C153.36 30.391 153.553 30.4332 153.704 30.5387C153.854 30.6443 153.983 30.7709 154.069 30.9397C154.155 31.1086 154.198 31.2985 154.198 31.5307C154.198 31.7628 154.155 31.9528 154.069 32.1216ZM157.853 30.2644C158.003 30.1589 158.219 30.0955 158.455 30.0955C158.799 30.0955 159.057 30.2011 159.294 30.4121C159.509 30.6021 159.595 30.9186 159.595 31.3407V32.9025H159.25V31.4885C159.25 31.1719 159.207 30.9397 159.143 30.792C159.057 30.6443 158.971 30.5387 158.842 30.4754C158.713 30.4121 158.563 30.391 158.412 30.391C158.154 30.391 157.939 30.4965 157.789 30.6865C157.638 30.8764 157.574 31.1508 157.574 31.4885V32.9025H157.23V31.4885C157.23 31.1719 157.187 30.9397 157.122 30.792C157.036 30.6443 156.95 30.5387 156.821 30.4754C156.692 30.4121 156.542 30.391 156.391 30.391C156.133 30.391 155.918 30.4965 155.768 30.6865C155.617 30.8764 155.553 31.1508 155.553 31.4885V32.9025H155.209V30.1589H155.531L155.553 30.581C155.639 30.4543 155.725 30.3488 155.854 30.2644C156.004 30.1589 156.219 30.0955 156.455 30.0955C156.799 30.0955 157.079 30.2011 157.273 30.4121C157.359 30.5176 157.444 30.6232 157.488 30.7709V30.7498C157.552 30.5387 157.681 30.3699 157.853 30.2644ZM161.874 30.2433C161.702 30.1378 161.508 30.0955 161.25 30.0955C161.099 30.0955 160.949 30.1166 160.82 30.1589C160.691 30.2011 160.562 30.2644 160.455 30.3488C160.347 30.4332 160.261 30.5387 160.175 30.6865L160.476 30.8131C160.562 30.6654 160.648 30.5599 160.777 30.4965C160.906 30.4332 161.057 30.391 161.229 30.391C161.422 30.391 161.551 30.4332 161.68 30.4965C161.788 30.581 161.873 30.6865 161.938 30.8342C161.981 30.9397 162.003 31.0875 162.024 31.2563H161.185C160.863 31.2563 160.605 31.3407 160.411 31.4885C160.218 31.6362 160.132 31.8472 160.132 32.1216C160.132 32.396 160.218 32.5859 160.411 32.7337C160.605 32.8814 160.863 32.9658 161.185 32.9658C161.551 32.9658 161.83 32.8603 162.024 32.6281L162.045 32.9025H162.346V31.4252C162.346 31.1297 162.304 30.8764 162.218 30.6865C162.153 30.4965 162.046 30.3488 161.874 30.2433ZM161.637 32.5437C161.508 32.6281 161.357 32.6703 161.185 32.6703C160.97 32.6703 160.799 32.6281 160.67 32.5226C160.541 32.4171 160.498 32.2904 160.498 32.1216C160.498 31.9528 160.562 31.805 160.67 31.7206C160.777 31.6151 160.971 31.5729 161.25 31.5729H162.045V31.7206C162.045 31.9106 162.002 32.0794 161.938 32.206C161.852 32.3538 161.766 32.4804 161.637 32.5437ZM164.131 32.6703C164.174 32.6703 164.217 32.6703 164.26 32.6492C164.262 32.6481 164.265 32.6469 164.267 32.6458L164.27 32.6443L164.276 32.642C164.285 32.6379 164.294 32.6338 164.304 32.6295C164.342 32.6134 164.387 32.5942 164.432 32.5648L164.583 32.8603C164.564 32.8677 164.545 32.8751 164.528 32.8824C164.514 32.8881 164.501 32.8938 164.488 32.8994C164.476 32.9044 164.464 32.9093 164.453 32.914C164.404 32.9354 164.361 32.9539 164.325 32.9658C164.26 32.9869 164.174 32.9869 164.11 32.9869C163.852 32.9869 163.658 32.9025 163.508 32.7759C163.357 32.6492 163.293 32.4593 163.293 32.206V30.4543H162.798V30.1588H163.293V29.2935H163.636V30.1588H164.518V30.4543H163.636V32.206C163.636 32.3538 163.679 32.4593 163.765 32.5437C163.851 32.6281 163.981 32.6703 164.131 32.6703ZM165.378 28.998C165.313 28.998 165.271 29.0191 165.228 29.0614C165.184 29.1036 165.163 29.1458 165.163 29.2091C165.163 29.2724 165.184 29.3146 165.228 29.3568C165.271 29.399 165.335 29.4201 165.378 29.4201C165.442 29.4201 165.486 29.399 165.529 29.3568C165.572 29.3146 165.593 29.2513 165.593 29.2091C165.593 29.1458 165.572 29.1036 165.529 29.0614C165.486 29.0191 165.442 28.998 165.378 28.998ZM165.55 32.9025H165.206V30.1588H165.55V32.9025ZM168.324 30.2855C168.109 30.1589 167.872 30.0955 167.614 30.0955C167.356 30.0955 167.12 30.1589 166.905 30.2855C166.69 30.4121 166.539 30.581 166.41 30.792C166.303 31.0031 166.238 31.2563 166.238 31.5307C166.238 31.805 166.303 32.0583 166.41 32.2693C166.518 32.4804 166.69 32.6492 166.905 32.7759C167.12 32.9025 167.356 32.9658 167.614 32.9658C167.872 32.9658 168.109 32.9025 168.324 32.7759C168.539 32.6492 168.689 32.4804 168.796 32.2693C168.904 32.0583 168.969 31.805 168.969 31.5307C168.969 31.2563 168.904 31.0031 168.796 30.792C168.689 30.5598 168.539 30.391 168.324 30.2855ZM168.517 32.1216C168.431 32.2904 168.302 32.4171 168.151 32.5226C168.001 32.6281 167.829 32.6703 167.614 32.6703C167.42 32.6703 167.227 32.6281 167.076 32.5226C166.926 32.4171 166.797 32.2904 166.711 32.1216C166.625 31.9528 166.582 31.7628 166.582 31.5307C166.582 31.2985 166.625 31.1086 166.711 30.9397C166.797 30.7709 166.926 30.6443 167.076 30.5387C167.227 30.4332 167.399 30.391 167.614 30.391C167.808 30.391 168.001 30.4332 168.151 30.5387C168.302 30.6443 168.431 30.7709 168.517 30.9397C168.603 31.1086 168.646 31.2985 168.646 31.5307C168.646 31.7628 168.603 31.9528 168.517 32.1216ZM170.882 30.0744C171.226 30.0744 171.505 30.1799 171.699 30.391C171.914 30.602 172 30.9186 172 31.3196V32.8814H171.656V31.4673C171.656 31.1508 171.613 30.9186 171.549 30.7709C171.463 30.6231 171.376 30.5176 171.248 30.4543C171.119 30.391 170.968 30.3699 170.818 30.3699C170.559 30.3699 170.344 30.4754 170.194 30.6654C170.043 30.8553 169.979 31.1297 169.979 31.4673V32.8814H169.635V30.1377H169.958L169.979 30.5598C170.065 30.4332 170.151 30.3277 170.28 30.2433C170.431 30.1377 170.646 30.0744 170.882 30.0744Z" fill="#515D6C"/>
<defs>
<linearGradient id="paint0_linear_3052_18980" x1="30.1801" y1="0.232601" x2="-0.928579" y2="33.1236" gradientUnits="userSpaceOnUse">
<stop stop-color="#7B79FF"/>
<stop offset="1" stop-color="#4240B8"/>
</linearGradient>
<linearGradient id="paint1_linear_3052_18980" x1="34.4902" y1="-0.138285" x2="13.4522" y2="18.3387" gradientUnits="userSpaceOnUse">
<stop stop-color="#7B79FF"/>
<stop offset="1" stop-color="#7B79FF" stop-opacity="0"/>
</linearGradient>
</defs>
</svg>
